<?xml version="1.0" standalone="no"?><!DOCTYPE svg PUBLIC "-//W3C//DTD SVG 1.1//EN" "http://www.w3.org/Graphics/SVG/1.1/DTD/svg11.dtd"><svg t="1554786887497" class="icon" style="" viewBox="0 0 1024 1024" version="1.1" xmlns="http://www.w3.org/2000/svg" p-id="558" xmlns:xlink="http://www.w3.org/1999/xlink" width="32" height="32"><defs><style type="text/css"></style></defs><path d="M504.031 697.625c-1.5-0.375-4.406-0.75-6.281-0.844-4.031-0.093-4.406-0.937-1.688-3.375 7.313-6.656 45.094-71.906 66.375-114.843 10.594-21.188 19.688-42.657 18.657-43.688-1.5-1.594-4.594 2.906-12 17.438-10.594 20.906-17.532 31.5-27.469 41.906C532.25 604.156 524.75 608.844 515 611c-11.625 2.625-21.75 0.656-28.125-5.531-6.469-6.188-8.625-13.5-8.625-29.438 0-19.968 5.156-42.75 18.281-80.343 3.75-10.875 6.75-19.875 6.656-20.063-0.187-0.094-16.218-0.844-35.812-1.594-19.5-0.75-46.5-1.875-59.906-2.437s-25.594-0.844-27-0.656c-2.531 0.28-3 1.218-8.25 14.718-35.063 91.125-101.625 156.188-175.031 171.188-46.313 9.468-92.907 1.687-124.22-20.907-8.624-6.187-20.25-18-25.5-25.968-13.406-20.438-17.624-47.438-11.718-76.407 3.375-16.875 9.375-27.28 23.625-40.78 10.219-9.75 16.969-13.594 24-13.594 7.594 0 7.406 2.156-0.563 6.656-15.937 9-31.218 31.5-35.343 52.219-2.532 12.187-1.688 31.968 1.781 41.906 6.563 19.125 19.219 32.812 40.406 43.312 14.531 7.219 28.875 10.969 47.906 12.375 19.875 1.5 36.844-0.562 58.5-7.125 65.813-19.875 114.094-61.781 147.094-127.5 5.625-11.437 13.219-28.781 13.219-30.469 0-1.593-8.344 0.094-16.875 3.47-13.031 5.062-15.938 5.156-15.938 0.468 0-5.531 9.563-14.625 17.813-16.875 1.781-0.469 7.313-0.938 12.188-0.938h9l5.906-14.718c8.625-21.188 22.875-53.25 36.281-81.281 6.375-13.407 11.531-24.47 11.344-24.563-0.375-0.375-72.844 7.031-79.875 8.156-26.063 4.125-50.719 12.844-66.375 23.531-18.375 12.47-33.375 33.657-40.594 57.47-2.25 7.312-2.625 10.03-2.625 20.624s0.281 12.938 2.25 17.813c8.25 21.281 27 29.344 49.031 21.094 12.938-4.875 23.438-18.47 30.188-39.375 2.719-8.344 3.469-19.688 1.875-28.875-0.656-4.032-0.656-4.125 1.969-3.75 5.718 0.656 9.937 15.937 8.062 28.968-2.156 14.813-7.594 25.313-19.406 37.031-12.938 12.938-28.313 18.938-45.938 17.907-14.344-0.844-25.594-6-36-16.5-7.219-7.313-12.469-15.75-15.375-24.938-1.781-5.531-2.062-8.625-1.969-19.687 0-11.531 0.375-14.156 2.625-21.563 11.625-38.156 39.47-61.875 87.188-74.062 20.438-5.25 39.656-7.688 85.406-10.781 23.25-1.594 43.031-3.094 44.156-3.282 1.125-0.281 3.844-3.281 6.657-7.687 6.375-9.75 10.406-14.25 16.406-18.375 9.094-6.281 21.75-7.031 27.188-1.594 2.25 2.344 2.625 3.375 2.625 7.969 0 9.562-5.625 16.406-18.282 22.5-7.594 3.562-12.469 5.062-20.437 5.906l-5.625 0.656-6.281 14.531c-7.688 17.625-41.25 104.25-41.25 106.22 0 0.187 10.03 0.656 22.312 0.937 12.188 0.281 38.156 1.687 57.563 3 19.5 1.312 37.78 2.344 40.687 2.156l5.25-0.281 6.375-16.406c19.875-51.375 46.313-102.844 61.875-120.282 7.688-8.625 17.813-13.406 30.75-14.437 8.156-0.656 8.625 0.281 2.156 4.219-12.281 7.593-41.25 56.343-61.406 103.593-6.375 14.906-16.5 41.438-16.5 43.313 0 1.125 21.75-0.375 26.906-1.875 15.094-4.594 11.438 4.031-4.312 9.937-4.5 1.688-12.188 3.281-24 5.156-2.813 0.375-2.813 0.47-10.5 25.032-12.75 40.594-15.657 54.094-15.75 72.375 0 11.906 0.187 13.5 2.156 17.062 1.125 2.25 3.094 4.688 4.406 5.532 3.188 2.062 9.844 1.875 14.344-0.47 12.188-6.187 30.375-30.28 45.844-60.562 5.343-10.5 8.156-14.531 10.218-14.531 1.5 0 6.375-11.906 7.97-19.219 1.78-8.344 1.593-21.844-0.376-25.406-0.843-1.594-2.25-3.281-3.187-3.656-1.125-0.469 1.406-1.313 7.687-2.438 9.844-1.781 18.938-2.25 20.719-1.031 5.156 3.375 4.031 26.156-2.344 46.969-2.25 7.125-2.156 7.125 6.188-5.532 15.562-23.437 30.281-38.625 41.906-43.5 4.875-2.062 14.063-1.875 18.938 0.282 7.5 3.375 12.562 11.906 14.062 23.156 1.969 15.938-7.5 44.531-22.313 66.938-7.5 11.437-22.406 26.53-31.406 31.875-17.062 9.937-37.593 12-52.687 5.062-2.813-1.219-5.438-1.969-5.719-1.594-0.375 0.469-10.313 20.625-22.125 44.813-11.813 24.281-22.781 46.406-24.375 49.218-3.469 6-8.156 10.688-11.906 12.094-3 1.125-12.75 1.219-17.063 0.094z m96.844-111.094c19.125-5.718 52.969-43.218 65.344-72.656 9.187-21.563 7.687-38.438-3.469-38.438-6.563 0-13.969 4.875-22.594 14.907-10.125 11.625-33.375 49.312-51.187 82.875l-5.907 10.968 4.125 1.875c4.875 2.25 7.407 2.344 13.688 0.47zM447.969 321.5c9.094-2.906 14.156-9 10.406-12.75-2.719-2.719-5.625-1.219-13.125 6.469-4.031 4.219-7.313 7.969-7.313 8.344 0 0.937 2.25 0.468 10.032-2.063zM807.767 634.813c-31.78-3-64.312-17.438-81.375-36.188-12.562-13.688-20.906-30.938-25.125-51.75-2.156-10.406-2.437-47.344-0.468-58.313 6.468-35.906 19.593-68.625 37.5-93.562 4.5-6.281 5.718-8.719 5.343-10.5-3.937-19.219-4.5-24.469-4.593-44.063 0-15.562 0.28-22.218 1.593-29.062 2.25-11.906 4.032-15.469 7.688-15.469h2.812l-0.28 5.625c-0.938 22.406-0.47 46.688 1.124 57.188 0.844 6.094 1.969 11.719 2.344 12.375 0.469 0.844 1.687-0.188 4.125-3.375 5.812-7.594 26.812-27.281 36.281-33.938 17.156-12.187 37.125-21.094 57.188-25.594 50.25-11.062 102 0.188 126.75 27.563 11.25 12.375 16.593 25.688 17.343 43.125 1.125 25.125-7.687 46.969-26.718 66.469-17.063 17.344-37.313 28.406-62.344 33.937-11.344 2.531-38.531 3.469-53.25 1.781-24.375-2.625-47.156-10.687-63.656-22.312-12.282-8.625-27.563-26.344-32.907-37.969-0.656-1.406-1.5-2.531-1.968-2.531-1.5 0-11.625 22.406-15.563 34.219-12.094 36.187-16.781 66-14.437 91.219 1.406 15.28 3.937 24.75 9.375 35.812 7.875 16.031 22.593 28.5 40.968 34.594 36.094 11.906 79.594 8.812 115.594-8.344 31.781-15.188 48.75-33.188 69.469-73.875 5.531-10.688 6.094-11.531 8.437-11.25 1.688 0.188 2.532 0.938 2.72 2.344 0.562 3.75-19.5 40.218-28.782 52.312-14.531 19.032-40.969 38.813-64.875 48.657-21.75 8.906-48 13.03-70.313 10.875z m89.157-165.657c29.437-4.781 54.562-20.344 69.375-43.125 14.718-22.406 16.125-51.187 3.562-72.187-4.031-6.844-12.844-15.75-20.437-20.719-23.532-15.375-60.282-18-92.532-6.656-23.437 8.25-43.968 21.844-64.5 42.562-8.812 8.813-26.812 31.031-28.312 34.781-0.563 1.594 7.406 17.438 12.656 24.75 23.625 33.282 69.75 48.844 120.188 40.594z" fill="#2A80B9" p-id="559"></path></svg>